<svg width="367" height="72" viewBox="0 0 367 72" fill="none" xmlns="http://www.w3.org/2000/svg">
<path d="M84.576 22.944C88.608 22.944 91.836 23.844 94.26 25.644C96.684 27.42 97.896 30.66 97.896 35.364C97.896 39.996 96.732 43.26 94.404 45.156C92.076 47.052 88.944 48 85.008 48H76.548V22.944H84.576ZM83.964 28.164V42.78H85.44C86.592 42.78 87.516 42.552 88.212 42.096C88.908 41.64 89.424 40.884 89.76 39.828C90.096 38.748 90.264 37.26 90.264 35.364C90.264 33.492 90.084 32.04 89.724 31.008C89.388 29.952 88.872 29.22 88.176 28.812C87.48 28.38 86.58 28.164 85.476 28.164H83.964ZM107.265 28.776V48H100.137V28.776H107.265ZM103.701 18.156C104.853 18.156 105.801 18.528 106.545 19.272C107.313 19.992 107.697 20.892 107.697 21.972C107.697 23.052 107.313 23.964 106.545 24.708C105.801 25.428 104.853 25.788 103.701 25.788C102.549 25.788 101.589 25.428 100.821 24.708C100.077 23.964 99.705 23.052 99.705 21.972C99.705 20.892 100.077 19.992 100.821 19.272C101.589 18.528 102.549 18.156 103.701 18.156ZM118.001 28.056C119.417 28.056 120.773 28.284 122.069 28.74C123.389 29.172 124.493 29.772 125.381 30.54L122.861 34.392C122.165 33.96 121.421 33.624 120.629 33.384C119.837 33.12 119.057 32.988 118.289 32.988C117.209 32.988 116.669 33.276 116.669 33.852C116.669 34.092 116.741 34.296 116.885 34.464C117.029 34.608 117.365 34.8 117.893 35.04C118.445 35.256 119.321 35.544 120.521 35.904C122.441 36.504 123.857 37.272 124.769 38.208C125.705 39.12 126.173 40.416 126.173 42.096C126.173 43.392 125.777 44.544 124.985 45.552C124.217 46.56 123.137 47.34 121.745 47.892C120.377 48.444 118.817 48.72 117.065 48.72C115.385 48.72 113.801 48.456 112.313 47.928C110.849 47.376 109.613 46.62 108.605 45.66L111.989 41.916C112.709 42.492 113.489 42.96 114.329 43.32C115.193 43.656 116.045 43.824 116.885 43.824C117.533 43.824 118.025 43.728 118.361 43.536C118.721 43.32 118.901 43.02 118.901 42.636C118.901 42.3 118.817 42.048 118.649 41.88C118.505 41.688 118.193 41.508 117.713 41.34C117.233 41.148 116.393 40.872 115.193 40.512C111.473 39.408 109.613 37.332 109.613 34.284C109.613 33.108 109.937 32.052 110.585 31.116C111.257 30.18 112.217 29.436 113.465 28.884C114.737 28.332 116.249 28.056 118.001 28.056ZM137.159 28.056C139.895 28.056 142.223 28.908 144.143 30.612L141.191 34.752C140.087 33.864 138.959 33.42 137.807 33.42C136.703 33.42 135.887 33.804 135.359 34.572C134.831 35.34 134.567 36.66 134.567 38.532C134.567 40.332 134.831 41.568 135.359 42.24C135.911 42.888 136.703 43.212 137.735 43.212C138.287 43.212 138.803 43.128 139.283 42.96C139.763 42.768 140.363 42.444 141.083 41.988L144.143 46.344C142.199 47.928 139.931 48.72 137.339 48.72C135.251 48.72 133.439 48.3 131.903 47.46C130.367 46.596 129.191 45.396 128.375 43.86C127.559 42.3 127.151 40.524 127.151 38.532C127.151 36.516 127.559 34.716 128.375 33.132C129.215 31.548 130.391 30.312 131.903 29.424C133.415 28.512 135.167 28.056 137.159 28.056ZM153.575 28.056C156.647 28.056 159.059 28.956 160.811 30.756C162.587 32.556 163.475 35.112 163.475 38.424C163.475 40.488 163.067 42.3 162.251 43.86C161.459 45.42 160.319 46.62 158.831 47.46C157.343 48.3 155.591 48.72 153.575 48.72C150.503 48.72 148.079 47.82 146.303 46.02C144.551 44.22 143.675 41.664 143.675 38.352C143.675 36.288 144.071 34.476 144.863 32.916C145.679 31.356 146.831 30.156 148.319 29.316C149.807 28.476 151.559 28.056 153.575 28.056ZM153.575 33.168C152.663 33.168 152.003 33.576 151.595 34.392C151.187 35.208 150.983 36.528 150.983 38.352C150.983 40.248 151.187 41.604 151.595 42.42C152.003 43.212 152.663 43.608 153.575 43.608C154.487 43.608 155.147 43.2 155.555 42.384C155.963 41.568 156.167 40.248 156.167 38.424C156.167 36.528 155.963 35.184 155.555 34.392C155.147 33.576 154.487 33.168 153.575 33.168ZM177.262 28.164C177.886 28.164 178.534 28.272 179.206 28.488L178.09 35.364C177.442 35.172 176.854 35.076 176.326 35.076C175.27 35.076 174.478 35.424 173.95 36.12C173.446 36.816 173.038 37.86 172.726 39.252V48H165.598V28.776H171.826L172.402 32.376C172.81 31.104 173.458 30.084 174.346 29.316C175.234 28.548 176.206 28.164 177.262 28.164ZM197.886 21.216V48H191.55L191.298 46.02C189.93 47.82 188.118 48.72 185.862 48.72C183.438 48.72 181.614 47.796 180.39 45.948C179.166 44.1 178.554 41.544 178.554 38.28C178.554 36.312 178.89 34.56 179.562 33.024C180.234 31.464 181.17 30.252 182.37 29.388C183.594 28.5 184.998 28.056 186.582 28.056C188.238 28.056 189.63 28.56 190.758 29.568V20.496L197.886 21.216ZM188.274 43.608C189.282 43.608 190.11 43.044 190.758 41.916V34.212C190.422 33.852 190.086 33.588 189.75 33.42C189.414 33.228 189.042 33.132 188.634 33.132C187.794 33.132 187.122 33.552 186.618 34.392C186.114 35.208 185.862 36.528 185.862 38.352C185.862 40.464 186.066 41.868 186.474 42.564C186.906 43.26 187.506 43.608 188.274 43.608ZM208.553 39.432V34.032H220.793V39.432H208.553ZM251.965 39.504C251.965 41.256 251.581 42.828 250.813 44.22C250.045 45.612 248.881 46.716 247.321 47.532C245.761 48.324 243.841 48.72 241.561 48.72C238.129 48.72 235.537 47.892 233.785 46.236C232.033 44.58 231.157 42.336 231.157 39.504V22.944H238.573V39.288C238.573 40.704 238.801 41.748 239.257 42.42C239.737 43.068 240.505 43.392 241.561 43.392C242.617 43.392 243.373 43.068 243.829 42.42C244.309 41.748 244.549 40.704 244.549 39.288V22.944H251.965V39.504ZM262.101 22.944V48H254.685V22.944H262.101ZM284.231 22.224C287.327 22.224 290.015 23.208 292.295 25.176L288.875 29.208C288.155 28.68 287.447 28.272 286.751 27.984C286.079 27.696 285.359 27.552 284.591 27.552C283.127 27.552 281.987 28.212 281.171 29.532C280.379 30.852 279.983 32.808 279.983 35.4C279.983 37.992 280.391 39.936 281.207 41.232C282.023 42.504 283.187 43.14 284.699 43.14C285.515 43.14 286.271 42.972 286.967 42.636C287.687 42.3 288.479 41.796 289.343 41.124L292.583 45.228C291.575 46.236 290.351 47.076 288.911 47.748C287.495 48.396 285.971 48.72 284.339 48.72C281.867 48.72 279.731 48.216 277.931 47.208C276.131 46.176 274.739 44.664 273.755 42.672C272.771 40.68 272.279 38.256 272.279 35.4C272.279 32.664 272.783 30.312 273.791 28.344C274.799 26.352 276.203 24.84 278.003 23.808C279.803 22.752 281.879 22.224 284.231 22.224ZM299.61 48.72C297.666 48.72 296.166 48.18 295.11 47.1C294.078 45.996 293.562 44.448 293.562 42.456V21.216L300.69 20.496V42.168C300.69 42.816 300.978 43.14 301.554 43.14C301.818 43.14 302.07 43.092 302.31 42.996L303.57 48.072C302.442 48.504 301.122 48.72 299.61 48.72ZM313.36 28.056C316.432 28.056 318.844 28.956 320.596 30.756C322.372 32.556 323.26 35.112 323.26 38.424C323.26 40.488 322.852 42.3 322.036 43.86C321.244 45.42 320.104 46.62 318.616 47.46C317.128 48.3 315.376 48.72 313.36 48.72C310.288 48.72 307.864 47.82 306.088 46.02C304.336 44.22 303.46 41.664 303.46 38.352C303.46 36.288 303.856 34.476 304.648 32.916C305.464 31.356 306.616 30.156 308.104 29.316C309.592 28.476 311.344 28.056 313.36 28.056ZM313.36 33.168C312.448 33.168 311.788 33.576 311.38 34.392C310.972 35.208 310.768 36.528 310.768 38.352C310.768 40.248 310.972 41.604 311.38 42.42C311.788 43.212 312.448 43.608 313.36 43.608C314.272 43.608 314.932 43.2 315.34 42.384C315.748 41.568 315.952 40.248 315.952 38.424C315.952 36.528 315.748 35.184 315.34 34.392C314.932 33.576 314.272 33.168 313.36 33.168ZM337.947 28.056C339.555 28.056 340.815 28.56 341.727 29.568C342.663 30.576 343.131 31.992 343.131 33.816V48H336.003V35.112C336.003 34.392 335.907 33.9 335.715 33.636C335.547 33.372 335.283 33.24 334.923 33.24C334.131 33.24 333.327 33.876 332.511 35.148V48H325.383V28.776H331.611L332.115 30.756C333.003 29.82 333.903 29.136 334.815 28.704C335.751 28.272 336.795 28.056 337.947 28.056ZM364.093 38.136C364.093 38.736 364.045 39.492 363.949 40.404H352.285C352.477 41.7 352.873 42.576 353.473 43.032C354.097 43.464 354.985 43.68 356.137 43.68C356.809 43.68 357.493 43.548 358.189 43.284C358.885 42.996 359.653 42.564 360.493 41.988L363.373 45.876C361.045 47.772 358.405 48.72 355.453 48.72C352.045 48.72 349.465 47.784 347.713 45.912C345.961 44.016 345.085 41.52 345.085 38.424C345.085 36.504 345.445 34.764 346.165 33.204C346.909 31.62 348.001 30.372 349.441 29.46C350.881 28.524 352.621 28.056 354.661 28.056C356.557 28.056 358.213 28.452 359.629 29.244C361.045 30.036 362.137 31.188 362.905 32.7C363.697 34.212 364.093 36.024 364.093 38.136ZM357.073 36.12C357.049 34.992 356.869 34.116 356.533 33.492C356.221 32.868 355.645 32.556 354.805 32.556C354.013 32.556 353.413 32.832 353.005 33.384C352.621 33.936 352.369 34.932 352.249 36.372H357.073V36.12Z" fill="url(#paint0_linear)"/>
<path d="M36 68.9925C54.2254 68.9925 69 54.2179 69 35.9925C69 17.7671 54.2254 2.9925 36 2.9925C17.7746 2.9925 3 17.7671 3 35.9925C3 54.2179 17.7746 68.9925 36 68.9925Z" fill="#8C9EFF"/>
<path d="M50.325 25.3125C50.325 25.3125 46.2414 22.1169 41.4186 21.75L40.9839 22.6191C45.3444 23.6862 47.3448 25.2153 49.434 27.0936C45.8313 25.2546 42.2742 23.5311 36.0747 23.5311C29.8752 23.5311 26.3178 25.2546 22.7154 27.0936C24.8049 25.2153 27.1845 23.5176 31.1655 22.6191L30.7308 21.75C25.6716 22.2282 21.825 25.3125 21.825 25.3125C21.825 25.3125 17.2641 31.9254 16.4811 44.9064C21.0786 50.208 28.0593 50.25 28.0593 50.25L29.5191 48.3039C27.0414 47.4426 24.243 45.9045 21.825 43.125C24.7089 45.3069 29.0613 47.5782 36.075 47.5782C43.0887 47.5782 47.4411 45.3072 50.325 43.125C47.907 45.9045 45.1086 47.4429 42.6309 48.3039L44.0907 50.25C44.0907 50.25 51.0714 50.208 55.6689 44.9061C54.8859 31.9254 50.325 25.3125 50.325 25.3125ZM30.2859 41.3439C28.5642 41.3439 27.1686 39.7488 27.1686 37.7814C27.1686 35.814 28.5642 34.2189 30.2859 34.2189C32.0076 34.2189 33.4032 35.814 33.4032 37.7814C33.4032 39.7488 32.0076 41.3439 30.2859 41.3439ZM41.8641 41.3439C40.1424 41.3439 38.7468 39.7488 38.7468 37.7814C38.7468 35.814 40.1424 34.2189 41.8641 34.2189C43.5858 34.2189 44.9814 35.814 44.9814 37.7814C44.9814 39.7488 43.5855 41.3439 41.8641 41.3439Z" fill="white"/>
<path opacity="0.1" d="M12.6654 59.3346C18.6372 65.3064 26.8872 69 36 69C54.2253 69 69 54.2253 69 36C69 26.8872 65.3064 18.6372 59.3346 12.6654L12.6654 59.3346Z" fill="#231F20"/>
<defs>
<linearGradient id="paint0_linear" x1="128.5" y1="1.92698e-06" x2="367" y2="72" gradientUnits="userSpaceOnUse">
<stop stop-color="#9DADFF"/>
<stop offset="1" stop-color="#8291E9"/>
<stop offset="1" stop-color="#5768D0"/>
</linearGradient>
</defs>
</svg>
