<svg width="150" height="150" viewBox="0 0 150 150" fill="none" xmlns="http://www.w3.org/2000/svg">
<g clip-path="url(#clip0)">
<path d="M112.548 47.0007C100.096 37.7438 88.2491 38.0007 88.2491 38.0007L87.0385 39.3725C101.739 43.8293 108.571 50.2579 108.571 50.2579C88.0292 39.0987 63.9001 39.0972 43.975 47.7724C40.7751 49.2293 38.8729 50.2579 38.8729 50.2579C38.8729 50.2579 46.0504 43.4866 61.6157 39.0297L60.7513 38.0007C60.7513 38.0007 48.9041 37.7438 36.4521 47.0007C36.4521 47.0007 24 69.3719 24 96.9714C24 96.9714 31.2642 109.4 50.3739 110C50.3739 110 53.5737 106.144 56.1679 102.886C45.1856 99.6283 41.0354 92.7722 41.0354 92.7722C42.3074 93.6538 44.405 94.7989 44.5807 94.9146C59.1763 103.017 79.9085 105.671 98.5399 97.9146C101.566 96.8005 104.939 95.1714 108.484 92.8573C108.484 92.8573 104.16 99.8863 92.8321 103.057C95.4271 106.314 98.5399 110 98.5399 110C117.65 109.4 125 96.971 125 96.971C125 69.3719 112.548 47.0007 112.548 47.0007ZM58.3296 89.0005C53.4871 89.0005 49.509 84.715 49.509 79.486C49.509 74.2574 53.4005 69.9719 58.3296 69.9719C63.2584 69.9719 67.2364 74.2574 67.1498 79.486C67.1498 84.715 63.2584 89.0005 58.3296 89.0005ZM89.8922 89.0005C85.0501 89.0005 81.072 84.715 81.072 79.486C81.072 74.2574 84.9634 69.9719 89.8922 69.9719C94.8213 69.9719 98.7128 74.2574 98.7128 79.486C98.7128 84.715 94.8213 89.0005 89.8922 89.0005Z" fill="#F6F6F6"/>
</g>
<defs>
<clipPath id="clip0">
<rect width="150" height="150" fill="white"/>
</clipPath>
</defs>
</svg>
