<svg width="150" height="150" viewBox="0 0 150 150" fill="none" xmlns="http://www.w3.org/2000/svg">
<rect width="150" height="150" fill="#404448"/>
<path d="M90.896 81.548C87.306 81.548 84.394 85.574 84.394 90.544C84.394 95.515 87.306 99.543 90.896 99.543C94.484 99.543 97.394 95.515 97.394 90.544C97.395 85.574 94.484 81.548 90.896 81.548ZM113.527 58.132C114.267 56.306 114.304 45.931 110.357 36C110.357 36 101.3 36.993 87.597 46.396C84.725 45.603 79.861 45.206 75 45.206C70.139 45.206 65.277 45.602 62.402 46.395C48.699 36.993 39.645 36 39.645 36C35.697 45.931 35.732 56.306 36.473 58.132C31.834 63.169 29 69.218 29 77.483C29 113.415 58.809 113.991 66.334 113.991C68.037 113.991 71.422 113.995 75 114C78.578 113.995 81.965 113.991 83.666 113.991C91.191 113.991 121 113.415 121 77.483C121 69.218 118.166 63.169 113.527 58.132ZM75.141 109.574H74.86C56.001 109.574 41.315 107.322 41.315 88.994C41.315 84.605 42.864 80.529 46.544 77.147C52.685 71.511 63.071 74.496 74.86 74.496C74.905 74.496 74.953 74.495 75.001 74.493C75.05 74.495 75.097 74.496 75.142 74.496C86.931 74.496 97.32 71.512 103.458 77.147C107.138 80.529 108.687 84.605 108.687 88.994C108.686 107.322 94 109.574 75.141 109.574ZM59.104 81.548C55.516 81.548 52.606 85.574 52.606 90.544C52.606 95.515 55.516 99.543 59.104 99.543C62.696 99.543 65.606 95.515 65.606 90.544C65.605 85.574 62.695 81.548 59.104 81.548Z" fill="white"/>
</svg>
