<svg width="150" height="150" viewBox="0 0 150 150" fill="none" xmlns="http://www.w3.org/2000/svg">
<g clip-path="url(#clip0)">
<rect width="150" height="150" fill="white"/>
<path d="M75 25C61.4207 25 59.718 25.0576 54.385 25.301C49.0631 25.5438 45.4283 26.3889 42.2479 27.625C38.96 28.9027 36.1715 30.6125 33.392 33.3922C30.6123 36.1717 28.9025 38.9602 27.6248 42.248C26.3887 45.4283 25.5436 49.0631 25.3008 54.385C25.0574 59.718 25 61.4207 25 75C25 88.5789 25.0574 90.2816 25.3008 95.6146C25.5436 100.937 26.3887 104.571 27.6248 107.752C28.9025 111.039 30.6123 113.828 33.392 116.608C36.1715 119.387 38.96 121.097 42.2479 122.375C45.4283 123.611 49.0631 124.456 54.385 124.699C59.718 124.942 61.4207 125 75 125C88.5789 125 90.2816 124.942 95.6146 124.699C100.937 124.456 104.571 123.611 107.752 122.375C111.039 121.097 113.828 119.387 116.608 116.608C119.387 113.828 121.097 111.039 122.375 107.752C123.611 104.571 124.456 100.937 124.699 95.6146C124.942 90.2816 125 88.5789 125 75C125 61.4207 124.942 59.718 124.699 54.385C124.456 49.0631 123.611 45.4283 122.375 42.248C121.097 38.9602 119.387 36.1717 116.608 33.3922C113.828 30.6125 111.039 28.9027 107.752 27.625C104.571 26.3889 100.937 25.5438 95.6146 25.301C90.2816 25.0576 88.5789 25 75 25V25ZM75 34.0092C88.3504 34.0092 89.9318 34.06 95.2041 34.3006C100.079 34.523 102.726 35.3375 104.488 36.0221C106.822 36.9291 108.488 38.0127 110.237 39.7623C111.987 41.5119 113.071 43.1777 113.978 45.5113C114.662 47.2732 115.477 49.9207 115.699 54.7955C115.94 60.068 115.991 61.6494 115.991 75C115.991 88.3504 115.94 89.9318 115.699 95.2041C115.477 100.079 114.662 102.726 113.978 104.488C113.071 106.822 111.987 108.488 110.237 110.237C108.488 111.987 106.822 113.071 104.488 113.978C102.726 114.662 100.079 115.477 95.2041 115.699C89.9326 115.94 88.3514 115.991 75 115.991C61.6482 115.991 60.0674 115.94 54.7955 115.699C49.9207 115.477 47.2732 114.662 45.5113 113.978C43.1775 113.071 41.5119 111.987 39.7621 110.237C38.0125 108.488 36.9289 106.822 36.0221 104.488C35.3373 102.726 34.5229 100.079 34.3004 95.2041C34.0598 89.9318 34.009 88.3504 34.009 75C34.009 61.6494 34.0598 60.068 34.3004 54.7955C34.5229 49.9207 35.3373 47.2732 36.0221 45.5113C36.9289 43.1777 38.0125 41.5119 39.7621 39.7623C41.5119 38.0127 43.1775 36.9291 45.5113 36.0221C47.2732 35.3375 49.9207 34.523 54.7955 34.3006C60.068 34.06 61.6494 34.0092 75 34.0092V34.0092Z" fill="url(#paint0_linear)"/>
<path d="M74.9983 91.6677C65.7934 91.6677 58.3315 84.2058 58.3315 75.0013C58.3315 65.7965 65.7934 58.3345 74.9983 58.3345C84.2028 58.3345 91.6647 65.7965 91.6647 75.0013C91.6647 84.2058 84.2028 91.6677 74.9983 91.6677ZM74.9983 49.3256C60.8178 49.3256 49.3225 60.8209 49.3225 75.0013C49.3225 89.1814 60.8178 100.677 74.9983 100.677C89.1784 100.677 100.674 89.1814 100.674 75.0013C100.674 60.8209 89.1784 49.3256 74.9983 49.3256V49.3256Z" fill="url(#paint1_linear)"/>
<path d="M107.691 48.3094C107.691 51.6232 105.005 54.3094 101.691 54.3094C98.3772 54.3094 95.6909 51.6232 95.6909 48.3094C95.6909 44.9957 98.3772 42.3096 101.691 42.3096C105.005 42.3096 107.691 44.9957 107.691 48.3094V48.3094Z" fill="url(#paint2_linear)"/>
</g>
<defs>
<linearGradient id="paint0_linear" x1="83.7519" y1="19.7015" x2="54.5297" y2="116.244" gradientUnits="userSpaceOnUse">
<stop stop-color="#515BD4"/>
<stop offset="0.26" stop-color="#9510B8"/>
<stop offset="0.66" stop-color="#E51804"/>
<stop offset="1" stop-color="#FEDA77"/>
</linearGradient>
<linearGradient id="paint1_linear" x1="83.7502" y1="19.7028" x2="54.528" y2="116.246" gradientUnits="userSpaceOnUse">
<stop stop-color="#515BD4"/>
<stop offset="0.26" stop-color="#9510B8"/>
<stop offset="0.66" stop-color="#E51804"/>
<stop offset="1" stop-color="#FFBF00"/>
</linearGradient>
<linearGradient id="paint2_linear" x1="83.753" y1="19.7011" x2="54.5308" y2="116.244" gradientUnits="userSpaceOnUse">
<stop stop-color="#515BD4"/>
<stop offset="0.26" stop-color="#9510B8"/>
<stop offset="0.66" stop-color="#E51804"/>
<stop offset="1" stop-color="#FFBF00"/>
</linearGradient>
<clipPath id="clip0">
<rect width="150" height="150" fill="white"/>
</clipPath>
</defs>
</svg>
