<svg width="114" height="114" viewBox="0 0 114 114" fill="none" xmlns="http://www.w3.org/2000/svg">
<path d="M114 106.875C114 110.808 110.808 114 106.875 114H7.125C3.192 114 0 110.808 0 106.875V7.125C0 3.192 3.192 0 7.125 0H106.875C110.808 0 114 3.192 114 7.125V106.875Z" fill="#007BB5"/>
<path d="M39.1875 39.1875H24.9375V89.0625H39.1875V39.1875Z" fill="white"/>
<path d="M73.0277 39.1875C63.0848 39.1875 61.3748 42.8141 60.5625 46.3125V39.1875H46.3125V89.0625H60.5625V60.5625C60.5625 55.9419 63.0669 53.4375 67.6875 53.4375C72.1976 53.4375 74.8125 55.8885 74.8125 60.5625V89.0625H89.0625V64.125C89.0625 49.875 87.2064 39.1875 73.0277 39.1875Z" fill="white"/>
<path d="M32.0625 35.625C35.9975 35.625 39.1875 32.435 39.1875 28.5C39.1875 24.565 35.9975 21.375 32.0625 21.375C28.1275 21.375 24.9375 24.565 24.9375 28.5C24.9375 32.435 28.1275 35.625 32.0625 35.625Z" fill="white"/>
</svg>
