<svg width="150" height="150" viewBox="0 0 150 150" fill="none" xmlns="http://www.w3.org/2000/svg">
<g clip-path="url(#clip0)">
<rect width="150" height="150" fill="url(#paint0_linear)"/>
<g clip-path="url(#clip1)">
<path d="M100.203 96.1936C102.676 87.7763 95.6464 85.1574 95.6464 85.1574C95.6464 85.1574 96.0683 84.371 96.7958 83.015C97.5233 81.6591 104.671 69.411 106.594 57.8523C108.517 46.2936 107.051 35.5529 105.291 34.2424C103.532 32.9319 101.264 32.7977 96.3062 35.2366C88.3233 38.8894 81.0226 43.8782 74.7185 49.9878C70.0391 54.6964 66.2428 60.2067 63.5102 66.2566C60.3525 64.2655 55.0599 63.9754 50.5965 68.3562C46.1331 72.7369 43.7539 79.0916 44.3314 87.4866C44.9089 95.8816 49.1195 97.4073 49.6153 97.1669C50.111 96.9264 49.7846 91.2855 52.1533 87.6844C54.0919 85.2012 56.6374 83.2592 59.5444 82.0454C59.5444 82.0454 60.1763 87.1168 60.3043 87.6919C60.7635 88.3287 61.33 88.8809 61.9784 89.3236C61.9784 89.3236 60.9709 92.2755 60.8859 92.5966C60.8009 92.9178 63.2129 94.5087 63.2129 94.5087C63.2129 94.5087 59.9218 104.321 59.558 104.999C59.1943 105.677 63.4675 107.899 64.5343 107.669C65.6012 107.438 71.3568 98.8257 71.3568 98.8257C71.3568 98.8257 75.872 101.248 76.1568 101.401C76.4415 101.554 77.8754 98.621 77.8754 98.621C78.6814 99.0451 79.5407 99.3592 80.4301 99.5552C81.8955 98.6944 83.2559 97.6662 84.4838 96.4913C84.4838 96.4913 85.5494 97.4996 84.8839 102.678C84.2184 107.857 79.0428 113.305 79.1086 114.126C79.1745 114.947 83.2833 116.663 88.0708 113.696C92.8583 110.729 97.7297 104.611 100.203 96.1936ZM103.613 36.1011C105.159 37.1576 105.238 48.533 104.804 48.5274C102.786 46.671 100.488 45.1435 97.9952 44.0009C95.6684 42.8449 93.2216 41.948 90.699 41.3262C91.0958 41.1724 102.056 34.9684 103.613 36.1011ZM52.6638 83.3481C50.416 85.3093 48.8364 87.9233 48.1456 90.8253C48.1456 90.8253 45.8179 87.0269 48.1685 78.3169C50.5191 69.6069 56.273 66.0757 62.1729 68.2283C61.169 70.472 60.4135 72.8189 59.9198 75.2269C59.2165 78.8485 59.0932 80.0222 59.0932 80.0222C59.0932 80.0222 56.5894 79.7091 52.6638 83.3481ZM63.6427 92.7311C63.48 92.6438 62.3394 92.3287 62.345 91.8951C62.5896 91.3006 62.8943 90.7327 63.2544 90.2002C63.5391 90.353 64.4783 90.4902 64.4476 90.8404C64.4168 91.1906 63.7317 92.9884 63.6136 92.7853L63.6427 92.7311ZM63.9545 104.616C63.4918 104.664 62.4944 104.636 62.5039 104.065C62.5135 103.493 71.4125 80.3976 72.3996 79.1111C73.0134 78.3577 79.0466 80.4247 78.9133 81.2264C78.7801 82.028 64.388 104.621 63.9254 104.67L63.9545 104.616ZM75.5502 99.2769C74.4567 98.7763 73.4074 98.1842 72.4137 97.5068C72.501 97.3441 73.7493 95.831 73.7493 95.831C74.7853 96.3061 75.7598 96.9051 76.6514 97.6151C76.5485 97.8393 75.6504 99.3831 75.4741 99.2885L75.5502 99.2769ZM89.3532 89.0104C89.3532 89.0104 87.7782 79.8707 87.5864 79.8377C87.3946 79.8046 86.6141 79.8923 86.5989 80.181C86.5837 80.4697 88.4937 89.9289 88.1088 90.3859C87.579 91.0978 86.9301 91.7126 86.1907 92.2033C85.902 92.1881 84.5851 83.4138 84.3546 83.2901C84.1241 83.1664 83.4504 83.6083 83.4504 83.6083C84.0216 86.7616 84.4309 89.9421 84.6768 93.1372C84.3864 93.418 83.3256 94.1585 83.3256 94.1585C83.3256 94.1585 81.8628 86.8602 81.7021 86.7041C81.5414 86.548 80.5519 86.9601 80.6452 87.307C81.3445 89.8862 81.8807 92.5068 82.2505 95.1534C81.9892 95.3799 80.5104 96.7693 80.5104 96.7693L79.6697 96.3182C79.5225 94.6477 79.2433 92.9914 78.8347 91.3649C78.4958 91.183 77.797 91.5416 77.6806 91.7585C77.5642 91.9755 78.5443 95.7144 78.2555 95.6992C77.9668 95.684 74.8617 94.018 74.8617 94.018C74.8617 94.018 81.8107 82.6936 81.7287 81.4796C81.7533 80.7313 81.5336 79.9954 81.1028 79.3831C80.6721 78.7707 80.0537 78.3153 79.3411 78.0856C76.8783 77.2749 74.3161 76.805 71.7258 76.689C69.977 76.6938 68.9192 79.479 68.5499 80.5906C67.6819 83.3471 66.6663 86.0549 65.5074 88.7023C64.4694 88.2906 63.4821 87.7609 62.565 87.1237C62.4218 86.8373 60.4468 79.1593 64.8186 69.3509C68.5976 61.1357 74.1246 53.8445 81.0135 47.9868C85.6267 44.1404 87.6806 42.623 87.6806 42.623C91.2065 42.9638 94.6237 44.0303 97.7175 45.7554C102.744 48.592 104.463 50.8238 104.566 51.3156C104.378 56.1593 103.564 60.9583 102.144 65.5931C101.363 67.9588 100.378 70.2523 99.1999 72.4478C99.1999 72.4478 98.6756 69.6169 98.2493 69.5978C97.823 69.5786 97.2602 70.2371 97.2602 70.2371C97.7243 71.4049 98.1017 72.6055 98.3891 73.8289C98.2363 74.1136 97.1104 76.6353 97.1104 76.6353C97.1104 76.6353 96.2073 71.4184 95.7737 71.4128C95.3402 71.4072 94.7069 71.6437 94.7459 71.9615C94.7849 72.2793 96.2962 77.8924 96.248 78.3729C95.8863 79.2415 95.4404 80.0726 94.9166 80.8543C94.9166 80.8543 93.0207 73.7775 92.7902 73.6538C92.5597 73.5302 91.6439 73.7723 91.9386 74.2971C92.7697 76.989 93.4402 79.7279 93.9467 82.4992C93.794 82.784 92.1472 85.4628 92.1472 85.4628C92.1472 85.4628 90.3987 77.3301 90.139 77.2607C89.8794 77.1912 89.264 77.5246 89.2696 77.807C89.2753 78.0895 91.5261 86.2298 91.2569 86.7314C90.6423 87.533 89.9812 88.2978 89.2771 89.022L89.3532 89.0104ZM93.9828 103.718C93.3449 102.372 92.5646 101.099 91.6551 99.9198C91.3687 100.063 90.9467 100.849 91.1911 101.208C91.9309 102.427 92.4933 103.746 92.8614 105.125C92.4211 106.01 91.899 106.853 91.3019 107.641L90.917 108.098C90.917 108.098 89.4534 105.13 89.0563 105.056C88.6591 104.983 88.0727 105.262 88.2298 105.783C88.387 106.304 89.9378 109.109 89.5932 109.361C88.5133 110.359 87.2522 111.14 85.8781 111.663C84.9411 111.913 83.9736 112.029 83.0043 112.008C83.0043 112.008 88.3224 104.96 88.1072 100.478C87.8921 95.9974 86.8361 95.134 86.8361 95.134C88.4342 93.753 89.9523 92.282 91.3828 90.7281C93.8061 88.0991 94.5783 87.3434 94.5783 87.3434C95.8684 88.4875 96.9622 89.8353 97.8161 91.3333C98.6555 93.0235 96.1722 99.4096 96.1722 99.4096C96.1722 99.4096 93.8365 95.1704 93.6738 95.0831C93.5111 94.9958 92.5974 95.8851 92.8418 96.2432C93.8314 97.6502 94.7207 99.1251 95.5029 100.657C95.016 101.727 94.4735 102.771 93.8776 103.784L93.9828 103.718ZM54.455 71.3519C53.5546 72.0897 52.8333 73.0223 52.3455 74.0793C52.3303 74.368 53.1052 74.7139 53.471 74.6831C53.8367 74.6524 54.1985 73.3272 55.2554 72.7243C56.0011 72.4096 56.8155 72.2931 57.6196 72.3862L57.7217 70.9916C57.1917 70.7678 56.6133 70.6834 56.0415 70.7465C55.4696 70.8096 54.9235 71.018 54.455 71.3519ZM97.2565 62.2372C100.298 55.3646 96.2546 50.8903 92.5801 50.3508C84.0937 49.0806 79.744 56.9275 81.9431 63.2764C84.1423 69.6252 94.1862 69.1641 97.2565 62.2372ZM93.6839 62.9398C93.7496 60.9452 93.6528 58.9485 93.3946 56.9696C93.0556 56.7877 92.0833 56.8423 92.1224 57.1601C92.3517 59.4422 92.4098 61.7382 92.2963 64.0289C91.4006 64.7851 90.2507 65.1721 89.08 65.1116C87.9094 65.051 86.8056 64.5473 85.9927 63.7028C83.04 60.8089 84.0524 55.537 86.1953 53.5609C87.1056 52.738 88.2518 52.2223 89.4715 52.0869C90.6912 51.9515 91.9226 52.2033 92.9913 52.8066C94.0245 53.3048 94.8467 54.1544 95.3109 55.2033C95.7751 56.2522 95.851 57.432 95.5251 58.5317C95.0624 60.0595 94.4407 61.5345 93.6704 62.9326L93.6839 62.9398ZM90.0471 54.8767C90.0987 54.782 90.1269 54.6764 90.1294 54.5687C90.132 54.461 90.1088 54.3542 90.0618 54.2572C90.0147 54.1602 89.9452 54.0759 89.859 54.0112C89.7728 53.9465 89.6724 53.9033 89.5662 53.8852C88.8297 53.6705 88.0396 53.7386 87.3508 54.0761C86.5785 54.6333 85.9582 55.3752 85.5469 56.2341C85.365 56.5731 86.378 57.2563 86.9263 57.3409C87.4746 57.4255 87.3135 57.0423 87.7355 56.2558C88.1574 55.4694 89.7703 55.1647 90.0471 54.8767ZM89.6298 57.4119C89.3815 59.1412 89.368 60.8962 89.5897 62.6292C89.805 63.0415 90.2174 62.8262 90.7674 62.6149C91.3174 62.4035 91.0288 58.3196 90.9008 57.7445C90.7728 57.1694 89.7201 57.146 89.5892 57.3901L89.6298 57.4119ZM87.9979 58.8588C87.5021 58.8383 87.0103 58.9552 86.5768 59.1965C86.5054 60.0471 86.5903 60.9035 86.8276 61.7235C86.9887 62.1067 87.7361 62.2109 88.0225 62.0677C88.3089 61.9245 88.4314 58.8644 87.9979 58.8588ZM95.0114 48.1627C95.1255 48.0873 95.217 47.9822 95.2759 47.8587C95.3349 47.7352 95.3592 47.598 95.3461 47.4618C95.3331 47.3256 95.2832 47.1955 95.2018 47.0855C95.1205 46.9755 95.0107 46.8896 94.8843 46.8372C94.7609 46.7791 94.6251 46.7523 94.4889 46.7591C94.3526 46.7659 94.2202 46.8061 94.1032 46.8762C93.9862 46.9463 93.8882 47.0442 93.818 47.1611C93.7477 47.278 93.7074 47.4104 93.7004 47.5467C93.7273 47.6873 93.7881 47.8193 93.8777 47.931C93.9673 48.0427 94.0829 48.1308 94.2143 48.1875C94.3458 48.2443 94.4892 48.268 94.6319 48.2566C94.7747 48.2452 94.9124 48.199 95.0332 48.122L95.0114 48.1627ZM98.7634 50.3155C98.8775 50.24 98.969 50.1349 99.0279 50.0114C99.0869 49.8879 99.1112 49.7508 99.0981 49.6145C99.085 49.4783 99.0352 49.3483 98.9538 49.2382C98.8725 49.1282 98.7627 49.0424 98.6363 48.99C98.5129 48.9319 98.3771 48.905 98.2409 48.9118C98.1046 48.9186 97.9722 48.9588 97.8552 49.029C97.7382 49.0991 97.6402 49.1969 97.57 49.3138C97.4997 49.4308 97.4594 49.5632 97.4524 49.6994C97.4773 49.8428 97.5375 49.9777 97.6275 50.0921C97.7176 50.2064 97.8347 50.2965 97.9682 50.3543C98.1018 50.4121 98.2476 50.4358 98.3926 50.4232C98.5376 50.4106 98.6772 50.3621 98.7987 50.2821L98.7634 50.3155ZM100.824 54.3196C100.938 54.2441 101.029 54.139 101.088 54.0155C101.147 53.8921 101.171 53.7549 101.158 53.6187C101.145 53.4825 101.095 53.3524 101.014 53.2424C100.933 53.1323 100.823 53.0465 100.696 52.9941C100.573 52.936 100.437 52.9091 100.301 52.9159C100.165 52.9227 100.032 52.963 99.9153 53.0331C99.7983 53.1032 99.7004 53.201 99.6301 53.318C99.5599 53.4349 99.5195 53.5673 99.5126 53.7035C99.5353 53.8444 99.5921 53.9776 99.678 54.0916C99.7639 54.2056 99.8763 54.2969 100.005 54.3576C100.135 54.4183 100.277 54.4466 100.419 54.4399C100.562 54.4333 100.701 54.392 100.824 54.3196V54.3196ZM100.938 59.1833C101.052 59.1078 101.144 59.0027 101.203 58.8793C101.262 58.7558 101.286 58.6186 101.273 58.4824C101.26 58.3462 101.21 58.2161 101.129 58.1061C101.047 57.9961 100.938 57.9102 100.811 57.8578C100.688 57.7997 100.552 57.7729 100.416 57.7797C100.279 57.7865 100.147 57.8267 100.03 57.8968C99.913 57.9669 99.815 58.0648 99.7448 58.1817C99.6745 58.2986 99.6342 58.431 99.6272 58.5673C99.6459 58.7135 99.7012 58.8527 99.7879 58.9719C99.8746 59.0912 99.99 59.1866 100.123 59.2495C100.257 59.3123 100.404 59.3406 100.551 59.3315C100.698 59.3225 100.841 59.2765 100.965 59.1979L100.938 59.1833ZM98.1333 63.1093C98.1488 63.2508 98.1985 63.3865 98.2782 63.5046C98.3578 63.6226 98.465 63.7195 98.5905 63.7868C98.716 63.8541 98.856 63.8899 98.9984 63.891C99.1408 63.8921 99.2813 63.8585 99.4079 63.7931C99.522 63.7177 99.6135 63.6126 99.6724 63.4891C99.7314 63.3656 99.7557 63.2284 99.7426 63.0922C99.7295 62.956 99.6797 62.8259 99.5983 62.7159C99.517 62.6059 99.4072 62.5201 99.2808 62.4677C99.1644 62.4229 99.0394 62.4049 98.9151 62.4151C98.7908 62.4252 98.6704 62.4632 98.5628 62.5263C98.4552 62.5893 98.3631 62.6757 98.2935 62.7792C98.2238 62.8826 98.1783 63.0004 98.1604 63.1238L98.1333 63.1093ZM97.1281 66.2196C97.0047 66.1615 96.8689 66.1347 96.7326 66.1415C96.5964 66.1483 96.4639 66.1885 96.3469 66.2586C96.2299 66.3287 96.132 66.4266 96.0617 66.5435C95.9915 66.6604 95.9511 66.7928 95.9442 66.9291C95.9597 67.0706 96.0094 67.2063 96.089 67.3243C96.1687 67.4424 96.2759 67.5393 96.4014 67.6066C96.5269 67.6739 96.6669 67.7097 96.8093 67.7108C96.9517 67.7119 97.0922 67.6783 97.2188 67.6129C97.3498 67.5479 97.4591 67.4461 97.5333 67.32C97.6075 67.1939 97.6434 67.049 97.6367 66.9028C97.63 66.7567 97.5809 66.6156 97.4954 66.4969C97.4099 66.3782 97.2917 66.2869 97.1552 66.2342L97.1281 66.2196ZM92.4973 69.4803C92.3739 69.4222 92.2381 69.3953 92.1019 69.4021C91.9656 69.4089 91.8332 69.4492 91.7162 69.5193C91.5991 69.5894 91.5012 69.6872 91.431 69.8042C91.3607 69.9211 91.3204 70.0535 91.3134 70.1897C91.3289 70.3313 91.3786 70.467 91.4583 70.585C91.5379 70.7031 91.6451 70.7999 91.7706 70.8673C91.8961 70.9346 92.0361 70.9704 92.1785 70.9715C92.3209 70.9726 92.4615 70.939 92.588 70.8736C92.7227 70.8081 92.8349 70.704 92.9102 70.5745C92.9855 70.445 93.0205 70.296 93.0108 70.1465C93.001 69.997 92.947 69.8538 92.8556 69.7351C92.7641 69.6165 92.6394 69.5278 92.4973 69.4803V69.4803ZM87.3296 69.1525C87.2062 69.0944 87.0704 69.0675 86.9342 69.0743C86.798 69.0811 86.6655 69.1213 86.5485 69.1915C86.4315 69.2616 86.3335 69.3594 86.2633 69.4763C86.1931 69.5933 86.1527 69.7257 86.1457 69.8619C86.1612 70.0035 86.2109 70.1391 86.2906 70.2572C86.3703 70.3752 86.4775 70.4721 86.603 70.5394C86.7285 70.6068 86.8685 70.6425 87.0109 70.6436C87.1533 70.6447 87.2938 70.6111 87.4203 70.5458C87.5597 70.483 87.6767 70.3794 87.7558 70.2486C87.835 70.1179 87.8725 69.9662 87.8635 69.8136C87.8544 69.661 87.7992 69.5148 87.7052 69.3943C87.6112 69.2738 87.4827 69.1848 87.3369 69.1389L87.3296 69.1525ZM81.6863 66.4565C81.5629 66.3984 81.4271 66.3715 81.2909 66.3783C81.1546 66.3851 81.0222 66.4253 80.9052 66.4954C80.7881 66.5656 80.6902 66.6634 80.62 66.7803C80.5497 66.8972 80.5093 67.0297 80.5024 67.1659C80.5179 67.3075 80.5676 67.4431 80.6473 67.5612C80.7269 67.6792 80.8341 67.7761 80.9596 67.8434C81.0851 67.9108 81.2251 67.9465 81.3675 67.9476C81.5099 67.9487 81.6505 67.9151 81.777 67.8497C81.9186 67.7871 82.0374 67.6823 82.1174 67.5497C82.1973 67.4172 82.2346 67.2632 82.224 67.1087C82.2134 66.9543 82.1555 66.8068 82.0582 66.6864C81.9609 66.566 81.8288 66.4784 81.68 66.4356L81.6863 66.4565ZM79.0761 61.2317C78.9527 61.1736 78.8169 61.1468 78.6807 61.1536C78.5444 61.1604 78.412 61.2006 78.295 61.2707C78.178 61.3408 78.08 61.4386 78.0098 61.5556C77.9395 61.6725 77.8992 61.8049 77.8922 61.9412C77.9077 62.0827 77.9574 62.2184 78.0371 62.3364C78.1167 62.4545 78.224 62.5514 78.3494 62.6187C78.4749 62.686 78.6149 62.7218 78.7573 62.7229C78.8997 62.724 79.0403 62.6904 79.1668 62.625C79.3084 62.5623 79.4272 62.4576 79.5072 62.325C79.5872 62.1924 79.6244 62.0384 79.6138 61.884C79.6032 61.7295 79.5453 61.582 79.448 61.4616C79.3507 61.3412 79.2186 61.2537 79.0698 61.2109L79.0761 61.2317ZM79.1833 55.5964C79.0599 55.5383 78.9241 55.5115 78.7879 55.5183C78.6517 55.5251 78.5192 55.5653 78.4022 55.6354C78.2852 55.7055 78.1872 55.8034 78.117 55.9203C78.0468 56.0372 78.0064 56.1696 77.9994 56.3059C78.0149 56.4474 78.0646 56.5831 78.1443 56.7012C78.224 56.8192 78.3312 56.9161 78.4567 56.9834C78.5822 57.0507 78.7222 57.0865 78.8646 57.0876C79.007 57.0887 79.1475 57.0551 79.274 56.9897C79.4087 56.9242 79.5209 56.8201 79.5962 56.6906C79.6715 56.5611 79.7065 56.4121 79.6968 56.2626C79.6871 56.1131 79.633 55.9699 79.5416 55.8513C79.4501 55.7326 79.3254 55.6439 79.1833 55.5964V55.5964ZM82.2967 50.2818C82.1733 50.2237 82.0375 50.1969 81.9013 50.2036C81.765 50.2104 81.6326 50.2507 81.5156 50.3208C81.3986 50.3909 81.3006 50.4887 81.2304 50.6057C81.1601 50.7226 81.1198 50.855 81.1128 50.9912C81.1283 51.1328 81.178 51.2685 81.2577 51.3865C81.3373 51.5046 81.4446 51.6014 81.57 51.6688C81.6955 51.7361 81.8355 51.7719 81.9779 51.773C82.1203 51.7741 82.2609 51.7405 82.3874 51.6751C82.5255 51.6154 82.6426 51.5158 82.7236 51.3891C82.8046 51.2623 82.8459 51.1142 82.8421 50.9638C82.8383 50.8134 82.7896 50.6676 82.7022 50.5452C82.6149 50.4227 82.4929 50.3291 82.3519 50.2765L82.2967 50.2818ZM87.0883 48.6092C87.2024 48.5337 87.2939 48.4286 87.3528 48.3052C87.4118 48.1817 87.4361 48.0445 87.423 47.9083C87.41 47.7721 87.3601 47.642 87.2787 47.532C87.1974 47.4219 87.0876 47.3361 86.9612 47.2837C86.8378 47.2256 86.702 47.1988 86.5658 47.2056C86.4295 47.2124 86.2971 47.2526 86.1801 47.3227C86.0631 47.3928 85.9651 47.4907 85.8949 47.6076C85.8246 47.7245 85.7843 47.8569 85.7773 47.9932C85.7952 48.1421 85.851 48.284 85.9393 48.4053C86.0277 48.5265 86.1457 48.6231 86.282 48.6857C86.4183 48.7483 86.5685 48.775 86.718 48.763C86.8676 48.7511 87.0116 48.701 87.1362 48.6175L87.0883 48.6092ZM91.3435 47.8712C91.4576 47.7957 91.5491 47.6906 91.608 47.5672C91.667 47.4437 91.6913 47.3065 91.6782 47.1703C91.6652 47.0341 91.6153 46.904 91.5339 46.794C91.4526 46.6839 91.3428 46.5981 91.2164 46.5457C91.093 46.4876 90.9572 46.4608 90.821 46.4676C90.6847 46.4744 90.5523 46.5146 90.4353 46.5847C90.3183 46.6548 90.2203 46.7526 90.1501 46.8696C90.0798 46.9865 90.0395 47.1189 90.0325 47.2551C90.0504 47.4041 90.1062 47.546 90.1945 47.6673C90.2829 47.7885 90.4009 47.8851 90.5372 47.9477C90.6735 48.0103 90.8237 48.037 90.9732 48.025C91.1228 48.0131 91.2668 47.9629 91.3914 47.8795L91.3435 47.8712Z" fill="#F9F9FA"/>
</g>
</g>
<defs>
<linearGradient id="paint0_linear" x1="0" y1="150" x2="150" y2="0" gradientUnits="userSpaceOnUse">
<stop stop-color="#325360"/>
<stop offset="0.796875" stop-color="#6591A2"/>
</linearGradient>
<clipPath id="clip0">
<rect width="150" height="150" fill="white"/>
</clipPath>
<clipPath id="clip1">
<rect width="98.4815" height="98.4815" fill="white" transform="translate(62 3) rotate(28.2147)"/>
</clipPath>
</defs>
</svg>
