<svg width="150" height="150" viewBox="0 0 150 150" fill="none" xmlns="http://www.w3.org/2000/svg">
<rect width="150" height="150" fill="#3BD95A"/>
<path d="M75 25.5862C47.7224 25.5862 25.5859 47.7226 25.5859 75C25.5859 102.277 47.7224 124.414 75 124.414C102.277 124.414 124.414 102.277 124.414 75C124.414 47.7226 102.277 25.5862 75 25.5862ZM95.0645 98.2925C94.2274 98.2925 93.7097 98.0334 92.9324 97.575C80.4994 90.0836 66.0339 89.7643 51.7475 92.6931C50.9704 92.8924 49.9542 93.2115 49.3764 93.2115C47.4437 93.2115 46.2283 91.6768 46.2283 90.0629C46.2283 88.011 47.4439 87.0347 48.9384 86.7159C65.2566 83.1095 81.9339 83.4279 96.1604 91.9362C97.3758 92.7135 98.0931 93.4109 98.0931 95.2237C98.0929 97.037 96.6782 98.2925 95.0645 98.2925ZM100.424 85.2214C99.388 85.2214 98.6912 84.7632 97.9735 84.3846C85.5203 77.0125 66.9502 74.0435 50.4326 78.5269C49.4761 78.7856 48.9581 79.0443 48.0616 79.0443C45.9297 79.0443 44.1961 77.3111 44.1961 75.1794C44.1961 73.0471 45.2321 71.6328 47.2845 71.0549C52.8238 69.5007 58.4824 68.3452 66.7715 68.3452C79.7023 68.3452 92.1955 71.5531 102.038 77.4106C103.652 78.3671 104.29 79.6022 104.29 81.336C104.27 83.4883 102.596 85.2214 100.424 85.2214ZM106.601 70.0386C105.565 70.0386 104.927 69.7798 104.031 69.2618C89.8442 60.7937 64.4795 58.7613 48.0614 63.3441C47.3442 63.5433 46.4475 63.8619 45.4908 63.8619C42.8609 63.8619 40.8484 61.8095 40.8484 59.1596C40.8484 56.45 42.5225 54.9156 44.3156 54.3976C51.3292 52.3452 59.1793 51.3689 67.7273 51.3689C82.2729 51.3689 97.515 54.3976 108.653 60.8932C110.208 61.7897 111.224 63.0249 111.224 65.3963C111.224 68.1061 109.032 70.0386 106.601 70.0386Z" fill="black"/>
</svg>
