<svg width="542" height="152" viewBox="0 0 542 152" fill="none" xmlns="http://www.w3.org/2000/svg">
<g clip-path="url(#clip0)">
<path d="M143.754 19.0556V147.718C125.685 131.751 131.464 137.037 110.476 117.525L111.844 130.793H32.9484C24.8444 130.793 18.2465 124.195 18.2465 116.018V19.0556C18.2465 10.8797 24.8441 4.28174 32.9484 4.28174H129.051C137.155 4.28174 143.754 10.8797 143.754 19.0556Z" fill="#8A9CFE"/>
<path d="M112.986 45.2327C102.659 37.4873 92.8332 37.7023 92.8332 37.7023L91.8291 38.85C104.021 42.5792 109.687 47.9581 109.687 47.9581C92.6508 38.621 72.6388 38.6197 56.1134 45.8785C53.4595 47.0975 51.8819 47.9581 51.8819 47.9581C51.8819 47.9581 57.8347 42.2924 70.7442 38.5633L70.0272 37.7023C70.0272 37.7023 60.2015 37.4873 49.8741 45.2327C49.8741 45.2327 39.5467 63.9513 39.5467 87.0444C39.5467 87.0444 45.5714 97.4433 61.4205 97.9457C61.4205 97.9457 64.0744 94.7189 66.2259 91.9928C57.1175 89.2674 53.6754 83.5308 53.6754 83.5308C54.7303 84.2684 56.4701 85.2266 56.6158 85.3234C68.7209 92.1031 85.9157 94.3238 101.368 87.8335C103.878 86.9013 106.675 85.5383 109.615 83.602C109.615 83.602 106.029 89.4833 96.6342 92.1366C98.7864 94.8616 101.368 97.9454 101.368 97.9454C117.218 97.4433 123.313 87.044 123.313 87.044C123.313 63.9513 112.986 45.2327 112.986 45.2327ZM68.0188 80.3749C64.0025 80.3749 60.7032 76.7892 60.7032 72.4139C60.7032 68.039 63.9306 64.4533 68.0188 64.4533C72.1065 64.4533 75.4058 68.039 75.334 72.4139C75.334 76.7892 72.1065 80.3749 68.0188 80.3749ZM94.1959 80.3749C90.18 80.3749 86.8807 76.7892 86.8807 72.4139C86.8807 68.039 90.1081 64.4533 94.1959 64.4533C98.284 64.4533 101.511 68.039 101.511 72.4139C101.511 76.7892 98.284 80.3749 94.1959 80.3749Z" fill="#FDFDFD"/>
<path d="M178.152 41.28C188.712 41.28 197.192 43.68 203.592 48.48C209.992 53.216 213.192 61.856 213.192 74.4C213.192 96.8 201.96 108 179.496 108H158.184V41.28H178.152ZM175.944 53.952V95.328H180.552C185.416 95.328 189 93.792 191.304 90.72C193.672 87.648 194.856 82.208 194.856 74.4C194.856 69.024 194.28 64.864 193.128 61.92C192.04 58.912 190.44 56.832 188.328 55.68C186.28 54.528 183.656 53.952 180.456 53.952H175.944ZM238.757 41.28V108H220.997V41.28H238.757ZM272.161 39.552C277.218 39.552 281.666 40.288 285.506 41.76C289.41 43.232 292.898 45.44 295.97 48.384L288.002 57.792C283.394 54.144 278.562 52.32 273.506 52.32C270.882 52.32 268.866 52.832 267.458 53.856C266.114 54.816 265.442 56.192 265.442 57.984C265.442 59.264 265.794 60.32 266.498 61.152C267.202 61.984 268.386 62.784 270.05 63.552C271.714 64.32 274.338 65.28 277.922 66.432C284.77 68.608 289.762 71.36 292.898 74.688C296.098 77.952 297.698 82.496 297.698 88.32C297.698 92.544 296.61 96.288 294.434 99.552C292.258 102.752 289.09 105.248 284.93 107.04C280.834 108.832 276.002 109.728 270.434 109.728C259.81 109.728 251.138 106.496 244.418 100.032L253.154 90.336C258.466 94.688 264.002 96.864 269.762 96.864C272.77 96.864 275.106 96.224 276.77 94.944C278.434 93.6 279.266 91.84 279.266 89.664C279.266 88.128 278.946 86.88 278.306 85.92C277.666 84.896 276.514 84 274.85 83.232C273.25 82.4 270.882 81.504 267.746 80.544C260.194 78.176 254.882 75.328 251.81 72C248.738 68.672 247.202 64.48 247.202 59.424C247.202 55.456 248.258 51.968 250.37 48.96C252.546 45.952 255.522 43.648 259.298 42.048C263.138 40.384 267.426 39.552 272.161 39.552ZM333.225 39.552C337.449 39.552 341.257 40.192 344.649 41.472C348.041 42.752 351.209 44.64 354.153 47.136L345.801 57.024C343.817 55.552 341.897 54.432 340.041 53.664C338.185 52.896 336.201 52.512 334.089 52.512C329.865 52.512 326.569 54.336 324.201 57.984C321.833 61.632 320.649 67.136 320.649 74.496C320.649 81.856 321.833 87.328 324.201 90.912C326.633 94.496 329.993 96.288 334.281 96.288C336.585 96.288 338.697 95.84 340.617 94.944C342.601 93.984 344.745 92.608 347.049 90.816L354.921 100.8C352.297 103.424 349.129 105.568 345.417 107.232C341.769 108.896 337.801 109.728 333.513 109.728C327.177 109.728 321.641 108.384 316.905 105.696C312.233 102.944 308.617 98.944 306.057 93.696C303.497 88.384 302.217 81.984 302.217 74.496C302.217 67.2 303.529 60.928 306.153 55.68C308.777 50.432 312.425 46.432 317.097 43.68C321.769 40.928 327.145 39.552 333.225 39.552ZM386.464 39.552C396.128 39.552 403.648 42.624 409.024 48.768C414.4 54.912 417.088 63.52 417.088 74.592C417.088 81.824 415.872 88.096 413.44 93.408C411.072 98.656 407.584 102.688 402.976 105.504C398.368 108.32 392.864 109.728 386.464 109.728C376.8 109.728 369.28 106.656 363.904 100.512C358.592 94.368 355.936 85.728 355.936 74.592C355.936 67.36 357.12 61.12 359.488 55.872C361.92 50.624 365.408 46.592 369.952 43.776C374.56 40.96 380.064 39.552 386.464 39.552ZM386.464 52.32C382.304 52.32 379.232 54.048 377.248 57.504C375.328 60.96 374.368 66.656 374.368 74.592C374.368 82.528 375.36 88.256 377.344 91.776C379.328 95.232 382.368 96.96 386.464 96.96C390.688 96.96 393.76 95.232 395.68 91.776C397.6 88.32 398.56 82.592 398.56 74.592C398.56 66.656 397.6 60.96 395.68 57.504C393.76 54.048 390.688 52.32 386.464 52.32ZM447.465 83.424H442.569V108H424.809V41.28H447.945C457.353 41.28 464.361 42.976 468.969 46.368C473.641 49.76 475.977 54.976 475.977 62.016C475.977 66.24 474.985 69.76 473.001 72.576C471.081 75.392 467.977 77.92 463.689 80.16L480.297 108H460.521L447.465 83.424ZM442.569 71.328H448.521C454.665 71.328 457.737 68.224 457.737 62.016C457.737 59.136 456.873 57.024 455.145 55.68C453.481 54.336 450.953 53.664 447.561 53.664H442.569V71.328ZM504.308 41.28C514.868 41.28 523.348 43.68 529.748 48.48C536.148 53.216 539.348 61.856 539.348 74.4C539.348 96.8 528.116 108 505.652 108H484.34V41.28H504.308ZM502.1 53.952V95.328H506.708C511.572 95.328 515.156 93.792 517.46 90.72C519.828 87.648 521.012 82.208 521.012 74.4C521.012 69.024 520.436 64.864 519.284 61.92C518.196 58.912 516.596 56.832 514.484 55.68C512.436 54.528 509.812 53.952 506.612 53.952H502.1Z" fill="white"/>
</g>
<defs>
<clipPath id="clip0">
<rect width="542" height="152" fill="white"/>
</clipPath>
</defs>
</svg>
